<mxfile host="app.diagrams.net" agent="Mozilla/5.0 (Windows NT 10.0; Win64; x64) AppleWebKit/537.36 (KHTML, like Gecko) Chrome/134.0.0.0 Safari/537.36 Edg/134.0.0.0" version="26.1.0">
  <diagram name="第 1 页" id="BC4iyXlFBTfQVyYWgQ6g">
    <mxGraphModel dx="972" dy="642" grid="1" gridSize="10" guides="1" tooltips="1" connect="1" arrows="1" fold="1" page="1" pageScale="1" pageWidth="827" pageHeight="1169" math="0" shadow="0">
      <root>
        <mxCell id="0" />
        <mxCell id="1" parent="0" />
        <mxCell id="G_8GG5uTkKvjm5KbU-xy-8" style="edgeStyle=orthogonalEdgeStyle;rounded=0;orthogonalLoop=1;jettySize=auto;html=1;" edge="1" parent="1" source="G_8GG5uTkKvjm5KbU-xy-1" target="G_8GG5uTkKvjm5KbU-xy-3">
          <mxGeometry relative="1" as="geometry" />
        </mxCell>
        <mxCell id="G_8GG5uTkKvjm5KbU-xy-1" value="开始" style="rounded=1;whiteSpace=wrap;html=1;arcSize=50;" vertex="1" parent="1">
          <mxGeometry x="360" y="140" width="120" height="40" as="geometry" />
        </mxCell>
        <mxCell id="G_8GG5uTkKvjm5KbU-xy-9" style="edgeStyle=orthogonalEdgeStyle;rounded=0;orthogonalLoop=1;jettySize=auto;html=1;entryX=0.5;entryY=0;entryDx=0;entryDy=0;" edge="1" parent="1" source="G_8GG5uTkKvjm5KbU-xy-3" target="G_8GG5uTkKvjm5KbU-xy-6">
          <mxGeometry relative="1" as="geometry" />
        </mxCell>
        <mxCell id="G_8GG5uTkKvjm5KbU-xy-3" value="学生填写报修信息" style="rounded=0;whiteSpace=wrap;html=1;" vertex="1" parent="1">
          <mxGeometry x="360" y="223" width="120" height="60" as="geometry" />
        </mxCell>
        <mxCell id="G_8GG5uTkKvjm5KbU-xy-11" style="edgeStyle=orthogonalEdgeStyle;rounded=0;orthogonalLoop=1;jettySize=auto;html=1;exitX=0.5;exitY=1;exitDx=0;exitDy=0;" edge="1" parent="1" source="G_8GG5uTkKvjm5KbU-xy-4" target="G_8GG5uTkKvjm5KbU-xy-7">
          <mxGeometry relative="1" as="geometry" />
        </mxCell>
        <mxCell id="G_8GG5uTkKvjm5KbU-xy-4" value="在线回复" style="rounded=0;whiteSpace=wrap;html=1;" vertex="1" parent="1">
          <mxGeometry x="360" y="448" width="120" height="60" as="geometry" />
        </mxCell>
        <mxCell id="G_8GG5uTkKvjm5KbU-xy-14" style="edgeStyle=orthogonalEdgeStyle;rounded=0;orthogonalLoop=1;jettySize=auto;html=1;entryX=1;entryY=0.5;entryDx=0;entryDy=0;" edge="1" parent="1" source="G_8GG5uTkKvjm5KbU-xy-5" target="G_8GG5uTkKvjm5KbU-xy-4">
          <mxGeometry relative="1" as="geometry">
            <Array as="points">
              <mxPoint x="630" y="478" />
            </Array>
          </mxGeometry>
        </mxCell>
        <mxCell id="G_8GG5uTkKvjm5KbU-xy-5" value="宿管安排维修人员" style="rounded=0;whiteSpace=wrap;html=1;" vertex="1" parent="1">
          <mxGeometry x="570" y="335" width="120" height="60" as="geometry" />
        </mxCell>
        <mxCell id="G_8GG5uTkKvjm5KbU-xy-10" style="edgeStyle=orthogonalEdgeStyle;rounded=0;orthogonalLoop=1;jettySize=auto;html=1;exitX=0.5;exitY=1;exitDx=0;exitDy=0;entryX=0.5;entryY=0;entryDx=0;entryDy=0;" edge="1" parent="1" source="G_8GG5uTkKvjm5KbU-xy-6" target="G_8GG5uTkKvjm5KbU-xy-4">
          <mxGeometry relative="1" as="geometry" />
        </mxCell>
        <mxCell id="G_8GG5uTkKvjm5KbU-xy-15" value="否" style="edgeLabel;html=1;align=center;verticalAlign=middle;resizable=0;points=[];" vertex="1" connectable="0" parent="G_8GG5uTkKvjm5KbU-xy-10">
          <mxGeometry x="-0.386" y="2" relative="1" as="geometry">
            <mxPoint x="-2" as="offset" />
          </mxGeometry>
        </mxCell>
        <mxCell id="G_8GG5uTkKvjm5KbU-xy-12" style="edgeStyle=orthogonalEdgeStyle;rounded=0;orthogonalLoop=1;jettySize=auto;html=1;exitX=1;exitY=0.5;exitDx=0;exitDy=0;entryX=0;entryY=0.5;entryDx=0;entryDy=0;" edge="1" parent="1" source="G_8GG5uTkKvjm5KbU-xy-6" target="G_8GG5uTkKvjm5KbU-xy-5">
          <mxGeometry relative="1" as="geometry" />
        </mxCell>
        <mxCell id="G_8GG5uTkKvjm5KbU-xy-13" value="是" style="edgeLabel;html=1;align=center;verticalAlign=middle;resizable=0;points=[];" vertex="1" connectable="0" parent="G_8GG5uTkKvjm5KbU-xy-12">
          <mxGeometry x="-0.0996" y="-1" relative="1" as="geometry">
            <mxPoint as="offset" />
          </mxGeometry>
        </mxCell>
        <mxCell id="G_8GG5uTkKvjm5KbU-xy-6" value="是否需要维修" style="rhombus;whiteSpace=wrap;html=1;" vertex="1" parent="1">
          <mxGeometry x="347" y="320" width="146" height="90" as="geometry" />
        </mxCell>
        <mxCell id="G_8GG5uTkKvjm5KbU-xy-7" value="结束" style="rounded=1;whiteSpace=wrap;html=1;arcSize=50;" vertex="1" parent="1">
          <mxGeometry x="360" y="544.5" width="120" height="40" as="geometry" />
        </mxCell>
      </root>
    </mxGraphModel>
  </diagram>
</mxfile>
